<mxfile host="app.diagrams.net" modified="2023-05-27T10:20:02.919Z" agent="Mozilla/5.0 (Windows NT 10.0; Win64; x64) AppleWebKit/537.36 (KHTML, like Gecko) Chrome/113.0.0.0 Safari/537.36" etag="La5CDlLjmzh0SaqgFEqW" version="21.3.4" type="github" pages="3">
  <diagram id="LA_E1UqR_heeUt6LLdxt" name="Client">
    <mxGraphModel dx="1434" dy="707" grid="1" gridSize="10" guides="1" tooltips="1" connect="1" arrows="1" fold="1" page="1" pageScale="1" pageWidth="827" pageHeight="1169" math="0" shadow="0">
      <root>
        <mxCell id="0" />
        <mxCell id="1" parent="0" />
        <mxCell id="Y7JHAWKHioro8XEyoRyl-16" style="edgeStyle=orthogonalEdgeStyle;rounded=0;orthogonalLoop=1;jettySize=auto;html=1;exitX=1;exitY=0.5;exitDx=0;exitDy=0;entryX=0;entryY=0.5;entryDx=0;entryDy=0;" edge="1" parent="1" source="paGRhX7Dbhwyw0_VAuTM-6" target="Y7JHAWKHioro8XEyoRyl-5">
          <mxGeometry relative="1" as="geometry" />
        </mxCell>
        <mxCell id="Y7JHAWKHioro8XEyoRyl-18" style="edgeStyle=orthogonalEdgeStyle;rounded=0;orthogonalLoop=1;jettySize=auto;html=1;exitX=1;exitY=0.5;exitDx=0;exitDy=0;strokeWidth=2;" edge="1" parent="1" source="paGRhX7Dbhwyw0_VAuTM-6" target="savNVfZnLsZxnWRySyuo-2">
          <mxGeometry relative="1" as="geometry" />
        </mxCell>
        <mxCell id="paGRhX7Dbhwyw0_VAuTM-6" value="" style="shape=image;html=1;verticalAlign=top;verticalLabelPosition=bottom;labelBackgroundColor=#ffffff;imageAspect=0;aspect=fixed;image=https://cdn2.iconfinder.com/data/icons/circle-icons-1/64/browser-128.png" parent="1" vertex="1">
          <mxGeometry y="50" width="90" height="90" as="geometry" />
        </mxCell>
        <mxCell id="Y7JHAWKHioro8XEyoRyl-5" value="service: Scraper&amp;nbsp;" style="swimlane;whiteSpace=wrap;html=1;fillColor=#6a00ff;fontColor=#ffffff;strokeColor=#3700CC;" vertex="1" parent="1">
          <mxGeometry x="100" width="340" height="200" as="geometry" />
        </mxCell>
        <mxCell id="Y7JHAWKHioro8XEyoRyl-17" style="edgeStyle=orthogonalEdgeStyle;rounded=0;orthogonalLoop=1;jettySize=auto;html=1;exitX=1;exitY=0.5;exitDx=0;exitDy=0;entryX=0;entryY=0.5;entryDx=0;entryDy=0;strokeWidth=2;" edge="1" parent="Y7JHAWKHioro8XEyoRyl-5" source="savNVfZnLsZxnWRySyuo-2" target="Y7JHAWKHioro8XEyoRyl-6">
          <mxGeometry relative="1" as="geometry" />
        </mxCell>
        <mxCell id="savNVfZnLsZxnWRySyuo-2" value="Scraper" style="whiteSpace=wrap;html=1;align=center;verticalAlign=middle;treeFolding=1;treeMoving=1;fillColor=#6d8764;fontColor=#ffffff;strokeColor=#3A5431;" parent="Y7JHAWKHioro8XEyoRyl-5" vertex="1">
          <mxGeometry x="20" y="40" width="120" height="90" as="geometry" />
        </mxCell>
        <mxCell id="Y7JHAWKHioro8XEyoRyl-6" value="scraperApi" style="rounded=0;whiteSpace=wrap;html=1;fillColor=#d80073;fontColor=#ffffff;strokeColor=#A50040;" vertex="1" parent="Y7JHAWKHioro8XEyoRyl-5">
          <mxGeometry x="188" y="40" width="126" height="90" as="geometry" />
        </mxCell>
        <mxCell id="Y7JHAWKHioro8XEyoRyl-7" value="service: Scraper&amp;nbsp;" style="swimlane;whiteSpace=wrap;html=1;fillColor=#6a00ff;fontColor=#ffffff;strokeColor=#3700CC;" vertex="1" parent="1">
          <mxGeometry x="100" y="245" width="340" height="200" as="geometry" />
        </mxCell>
        <mxCell id="Y7JHAWKHioro8XEyoRyl-20" style="edgeStyle=orthogonalEdgeStyle;rounded=0;orthogonalLoop=1;jettySize=auto;html=1;entryX=0;entryY=0.5;entryDx=0;entryDy=0;strokeWidth=2;" edge="1" parent="Y7JHAWKHioro8XEyoRyl-7" source="Y7JHAWKHioro8XEyoRyl-8" target="Y7JHAWKHioro8XEyoRyl-9">
          <mxGeometry relative="1" as="geometry" />
        </mxCell>
        <mxCell id="Y7JHAWKHioro8XEyoRyl-8" value="Scraper" style="whiteSpace=wrap;html=1;align=center;verticalAlign=middle;treeFolding=1;treeMoving=1;fillColor=#6d8764;fontColor=#ffffff;strokeColor=#3A5431;" vertex="1" parent="Y7JHAWKHioro8XEyoRyl-7">
          <mxGeometry x="20" y="40" width="120" height="90" as="geometry" />
        </mxCell>
        <mxCell id="Y7JHAWKHioro8XEyoRyl-9" value="scraperApi" style="rounded=0;whiteSpace=wrap;html=1;fillColor=#d80073;fontColor=#ffffff;strokeColor=#A50040;" vertex="1" parent="Y7JHAWKHioro8XEyoRyl-7">
          <mxGeometry x="188" y="40" width="126" height="90" as="geometry" />
        </mxCell>
        <mxCell id="Y7JHAWKHioro8XEyoRyl-10" value="service: Scraper&amp;nbsp;" style="swimlane;whiteSpace=wrap;html=1;fillColor=#6a00ff;fontColor=#ffffff;strokeColor=#3700CC;" vertex="1" parent="1">
          <mxGeometry x="100" y="510" width="340" height="200" as="geometry" />
        </mxCell>
        <mxCell id="Y7JHAWKHioro8XEyoRyl-22" style="edgeStyle=orthogonalEdgeStyle;rounded=0;orthogonalLoop=1;jettySize=auto;html=1;entryX=0;entryY=0.5;entryDx=0;entryDy=0;strokeWidth=2;" edge="1" parent="Y7JHAWKHioro8XEyoRyl-10" source="Y7JHAWKHioro8XEyoRyl-11" target="Y7JHAWKHioro8XEyoRyl-12">
          <mxGeometry relative="1" as="geometry" />
        </mxCell>
        <mxCell id="Y7JHAWKHioro8XEyoRyl-11" value="Scraper" style="whiteSpace=wrap;html=1;align=center;verticalAlign=middle;treeFolding=1;treeMoving=1;fillColor=#6d8764;fontColor=#ffffff;strokeColor=#3A5431;" vertex="1" parent="Y7JHAWKHioro8XEyoRyl-10">
          <mxGeometry x="20" y="40" width="120" height="90" as="geometry" />
        </mxCell>
        <mxCell id="Y7JHAWKHioro8XEyoRyl-12" value="scraperApi" style="rounded=0;whiteSpace=wrap;html=1;fillColor=#d80073;fontColor=#ffffff;strokeColor=#A50040;" vertex="1" parent="Y7JHAWKHioro8XEyoRyl-10">
          <mxGeometry x="188" y="40" width="126" height="90" as="geometry" />
        </mxCell>
        <mxCell id="Y7JHAWKHioro8XEyoRyl-13" value="service: Client" style="swimlane;whiteSpace=wrap;html=1;fillColor=#6a00ff;fontColor=#ffffff;strokeColor=#3700CC;" vertex="1" parent="1">
          <mxGeometry x="560" width="480" height="520" as="geometry" />
        </mxCell>
        <mxCell id="AuuLSRP3U-ocMQy14wQM-1" value="DataBase" style="strokeWidth=2;html=1;shape=mxgraph.flowchart.database;whiteSpace=wrap;" parent="Y7JHAWKHioro8XEyoRyl-13" vertex="1">
          <mxGeometry x="290" y="40" width="170" height="220" as="geometry" />
        </mxCell>
        <mxCell id="Y7JHAWKHioro8XEyoRyl-31" style="edgeStyle=orthogonalEdgeStyle;rounded=0;orthogonalLoop=1;jettySize=auto;html=1;entryX=0;entryY=0.5;entryDx=0;entryDy=0;entryPerimeter=0;strokeWidth=2;" edge="1" parent="Y7JHAWKHioro8XEyoRyl-13" source="Y7JHAWKHioro8XEyoRyl-23" target="AuuLSRP3U-ocMQy14wQM-1">
          <mxGeometry relative="1" as="geometry" />
        </mxCell>
        <mxCell id="Y7JHAWKHioro8XEyoRyl-23" value="Data Base&lt;br&gt;Logic" style="rounded=1;whiteSpace=wrap;html=1;" vertex="1" parent="Y7JHAWKHioro8XEyoRyl-13">
          <mxGeometry x="10" y="180" width="150" height="100" as="geometry" />
        </mxCell>
        <mxCell id="Y7JHAWKHioro8XEyoRyl-29" style="edgeStyle=orthogonalEdgeStyle;rounded=0;orthogonalLoop=1;jettySize=auto;html=1;entryX=0.5;entryY=0;entryDx=0;entryDy=0;strokeWidth=2;" edge="1" parent="Y7JHAWKHioro8XEyoRyl-13" source="Y7JHAWKHioro8XEyoRyl-24" target="Y7JHAWKHioro8XEyoRyl-23">
          <mxGeometry relative="1" as="geometry" />
        </mxCell>
        <mxCell id="Y7JHAWKHioro8XEyoRyl-24" value="Transport&lt;br&gt;Logic" style="rounded=1;whiteSpace=wrap;html=1;" vertex="1" parent="Y7JHAWKHioro8XEyoRyl-13">
          <mxGeometry x="10" y="40" width="150" height="100" as="geometry" />
        </mxCell>
        <mxCell id="Y7JHAWKHioro8XEyoRyl-41" style="edgeStyle=orthogonalEdgeStyle;rounded=0;orthogonalLoop=1;jettySize=auto;html=1;entryX=0.5;entryY=1;entryDx=0;entryDy=0;strokeWidth=2;" edge="1" parent="Y7JHAWKHioro8XEyoRyl-13" source="Y7JHAWKHioro8XEyoRyl-1" target="Y7JHAWKHioro8XEyoRyl-23">
          <mxGeometry relative="1" as="geometry" />
        </mxCell>
        <mxCell id="Y7JHAWKHioro8XEyoRyl-1" value="DataBase&lt;br&gt;API" style="rounded=1;whiteSpace=wrap;html=1;fillColor=#d80073;fontColor=#ffffff;strokeColor=#A50040;" vertex="1" parent="Y7JHAWKHioro8XEyoRyl-13">
          <mxGeometry x="250" y="320" width="210" height="170" as="geometry" />
        </mxCell>
        <mxCell id="Y7JHAWKHioro8XEyoRyl-21" style="edgeStyle=orthogonalEdgeStyle;rounded=0;orthogonalLoop=1;jettySize=auto;html=1;entryX=0;entryY=0.5;entryDx=0;entryDy=0;strokeWidth=2;" edge="1" parent="1" source="Y7JHAWKHioro8XEyoRyl-14" target="Y7JHAWKHioro8XEyoRyl-11">
          <mxGeometry relative="1" as="geometry" />
        </mxCell>
        <mxCell id="Y7JHAWKHioro8XEyoRyl-14" value="" style="shape=image;html=1;verticalAlign=top;verticalLabelPosition=bottom;labelBackgroundColor=#ffffff;imageAspect=0;aspect=fixed;image=https://cdn2.iconfinder.com/data/icons/circle-icons-1/64/browser-128.png" vertex="1" parent="1">
          <mxGeometry y="550" width="90" height="90" as="geometry" />
        </mxCell>
        <mxCell id="Y7JHAWKHioro8XEyoRyl-19" style="edgeStyle=orthogonalEdgeStyle;rounded=0;orthogonalLoop=1;jettySize=auto;html=1;entryX=0;entryY=0.5;entryDx=0;entryDy=0;strokeWidth=2;" edge="1" parent="1" source="Y7JHAWKHioro8XEyoRyl-15" target="Y7JHAWKHioro8XEyoRyl-8">
          <mxGeometry relative="1" as="geometry" />
        </mxCell>
        <mxCell id="Y7JHAWKHioro8XEyoRyl-15" value="" style="shape=image;html=1;verticalAlign=top;verticalLabelPosition=bottom;labelBackgroundColor=#ffffff;imageAspect=0;aspect=fixed;image=https://cdn2.iconfinder.com/data/icons/circle-icons-1/64/browser-128.png" vertex="1" parent="1">
          <mxGeometry y="285" width="90" height="90" as="geometry" />
        </mxCell>
        <mxCell id="Y7JHAWKHioro8XEyoRyl-25" style="edgeStyle=orthogonalEdgeStyle;rounded=0;orthogonalLoop=1;jettySize=auto;html=1;entryX=0;entryY=0.5;entryDx=0;entryDy=0;strokeWidth=3;" edge="1" parent="1" source="Y7JHAWKHioro8XEyoRyl-9" target="Y7JHAWKHioro8XEyoRyl-24">
          <mxGeometry relative="1" as="geometry" />
        </mxCell>
        <mxCell id="Y7JHAWKHioro8XEyoRyl-26" style="edgeStyle=orthogonalEdgeStyle;rounded=0;orthogonalLoop=1;jettySize=auto;html=1;entryX=0;entryY=0.5;entryDx=0;entryDy=0;strokeWidth=3;" edge="1" parent="1" source="Y7JHAWKHioro8XEyoRyl-6" target="Y7JHAWKHioro8XEyoRyl-24">
          <mxGeometry relative="1" as="geometry" />
        </mxCell>
        <mxCell id="Y7JHAWKHioro8XEyoRyl-27" style="edgeStyle=orthogonalEdgeStyle;rounded=0;orthogonalLoop=1;jettySize=auto;html=1;entryX=0;entryY=0.5;entryDx=0;entryDy=0;strokeWidth=3;" edge="1" parent="1" source="Y7JHAWKHioro8XEyoRyl-12" target="Y7JHAWKHioro8XEyoRyl-24">
          <mxGeometry relative="1" as="geometry" />
        </mxCell>
        <mxCell id="Y7JHAWKHioro8XEyoRyl-51" style="edgeStyle=orthogonalEdgeStyle;rounded=0;orthogonalLoop=1;jettySize=auto;html=1;entryX=0.806;entryY=0.005;entryDx=0;entryDy=0;entryPerimeter=0;strokeWidth=3;" edge="1" parent="1" source="Y7JHAWKHioro8XEyoRyl-35" target="Y7JHAWKHioro8XEyoRyl-42">
          <mxGeometry relative="1" as="geometry" />
        </mxCell>
        <mxCell id="Y7JHAWKHioro8XEyoRyl-35" value="" style="shape=actor;whiteSpace=wrap;html=1;" vertex="1" parent="1">
          <mxGeometry x="1380" width="80" height="100" as="geometry" />
        </mxCell>
        <mxCell id="Y7JHAWKHioro8XEyoRyl-49" style="edgeStyle=orthogonalEdgeStyle;rounded=0;orthogonalLoop=1;jettySize=auto;html=1;entryX=0.5;entryY=0;entryDx=0;entryDy=0;strokeWidth=3;" edge="1" parent="1" source="Y7JHAWKHioro8XEyoRyl-36" target="Y7JHAWKHioro8XEyoRyl-42">
          <mxGeometry relative="1" as="geometry" />
        </mxCell>
        <mxCell id="Y7JHAWKHioro8XEyoRyl-36" value="" style="shape=actor;whiteSpace=wrap;html=1;" vertex="1" parent="1">
          <mxGeometry x="1290" y="80" width="80" height="100" as="geometry" />
        </mxCell>
        <mxCell id="Y7JHAWKHioro8XEyoRyl-50" style="edgeStyle=orthogonalEdgeStyle;rounded=0;orthogonalLoop=1;jettySize=auto;html=1;entryX=0.25;entryY=0;entryDx=0;entryDy=0;strokeWidth=3;" edge="1" parent="1" source="Y7JHAWKHioro8XEyoRyl-37" target="Y7JHAWKHioro8XEyoRyl-42">
          <mxGeometry relative="1" as="geometry" />
        </mxCell>
        <mxCell id="Y7JHAWKHioro8XEyoRyl-37" value="" style="shape=actor;whiteSpace=wrap;html=1;" vertex="1" parent="1">
          <mxGeometry x="1190" width="80" height="100" as="geometry" />
        </mxCell>
        <mxCell id="Y7JHAWKHioro8XEyoRyl-48" style="edgeStyle=orthogonalEdgeStyle;rounded=0;orthogonalLoop=1;jettySize=auto;html=1;entryX=1;entryY=0.5;entryDx=0;entryDy=0;strokeWidth=3;" edge="1" parent="1" source="Y7JHAWKHioro8XEyoRyl-42" target="Y7JHAWKHioro8XEyoRyl-1">
          <mxGeometry relative="1" as="geometry" />
        </mxCell>
        <mxCell id="Y7JHAWKHioro8XEyoRyl-42" value="APPs" style="swimlane;whiteSpace=wrap;html=1;fillColor=#1ba1e2;fontColor=#ffffff;strokeColor=#006EAF;" vertex="1" parent="1">
          <mxGeometry x="1070" y="315" width="490" height="205" as="geometry" />
        </mxCell>
        <mxCell id="Y7JHAWKHioro8XEyoRyl-43" value="MobileApp" style="rounded=1;whiteSpace=wrap;html=1;" vertex="1" parent="Y7JHAWKHioro8XEyoRyl-42">
          <mxGeometry x="10" y="30" width="130" height="100" as="geometry" />
        </mxCell>
        <mxCell id="Y7JHAWKHioro8XEyoRyl-44" value="WebSite" style="rounded=1;whiteSpace=wrap;html=1;" vertex="1" parent="Y7JHAWKHioro8XEyoRyl-42">
          <mxGeometry x="180" y="30" width="130" height="100" as="geometry" />
        </mxCell>
        <mxCell id="Y7JHAWKHioro8XEyoRyl-45" value="TelegramBot" style="rounded=1;whiteSpace=wrap;html=1;" vertex="1" parent="Y7JHAWKHioro8XEyoRyl-42">
          <mxGeometry x="350" y="30" width="130" height="100" as="geometry" />
        </mxCell>
      </root>
    </mxGraphModel>
  </diagram>
  <diagram name="DataBase" id="4mF6zMxodfcFsqyh0v-n">
    <mxGraphModel dx="986" dy="732" grid="1" gridSize="10" guides="1" tooltips="1" connect="1" arrows="1" fold="1" page="1" pageScale="1" pageWidth="826" pageHeight="1169" math="0" shadow="0">
      <root>
        <mxCell id="0" />
        <mxCell id="1" parent="0" />
        <mxCell id="OmRxVQi6y_6Q5-akPWUE-15" value="Posts" style="shape=table;startSize=30;container=1;collapsible=0;childLayout=tableLayout;fixedRows=1;rowLines=0;fontStyle=0;strokeColor=default;fontSize=16;" vertex="1" parent="1">
          <mxGeometry x="50" y="130" width="180" height="210" as="geometry" />
        </mxCell>
        <mxCell id="OmRxVQi6y_6Q5-akPWUE-16" value="" style="shape=tableRow;horizontal=0;startSize=0;swimlaneHead=0;swimlaneBody=0;top=0;left=0;bottom=0;right=0;collapsible=0;dropTarget=0;fillColor=none;points=[[0,0.5],[1,0.5]];portConstraint=eastwest;strokeColor=inherit;fontSize=16;" vertex="1" parent="OmRxVQi6y_6Q5-akPWUE-15">
          <mxGeometry y="30" width="180" height="30" as="geometry" />
        </mxCell>
        <mxCell id="OmRxVQi6y_6Q5-akPWUE-17" value="1" style="shape=partialRectangle;html=1;whiteSpace=wrap;connectable=0;fillColor=none;top=0;left=0;bottom=0;right=0;overflow=hidden;pointerEvents=1;strokeColor=inherit;fontSize=16;" vertex="1" parent="OmRxVQi6y_6Q5-akPWUE-16">
          <mxGeometry width="40" height="30" as="geometry">
            <mxRectangle width="40" height="30" as="alternateBounds" />
          </mxGeometry>
        </mxCell>
        <mxCell id="OmRxVQi6y_6Q5-akPWUE-18" value="id&lt;span style=&quot;white-space: pre;&quot;&gt; &lt;br/&gt;&lt;/span&gt;" style="shape=partialRectangle;html=1;whiteSpace=wrap;connectable=0;fillColor=none;top=0;left=0;bottom=0;right=0;align=left;spacingLeft=6;overflow=hidden;strokeColor=inherit;fontSize=16;" vertex="1" parent="OmRxVQi6y_6Q5-akPWUE-16">
          <mxGeometry x="40" width="140" height="30" as="geometry">
            <mxRectangle width="140" height="30" as="alternateBounds" />
          </mxGeometry>
        </mxCell>
        <mxCell id="OmRxVQi6y_6Q5-akPWUE-19" value="" style="shape=tableRow;horizontal=0;startSize=0;swimlaneHead=0;swimlaneBody=0;top=0;left=0;bottom=0;right=0;collapsible=0;dropTarget=0;fillColor=none;points=[[0,0.5],[1,0.5]];portConstraint=eastwest;strokeColor=inherit;fontSize=16;" vertex="1" parent="OmRxVQi6y_6Q5-akPWUE-15">
          <mxGeometry y="60" width="180" height="30" as="geometry" />
        </mxCell>
        <mxCell id="OmRxVQi6y_6Q5-akPWUE-20" value="2" style="shape=partialRectangle;html=1;whiteSpace=wrap;connectable=0;fillColor=none;top=0;left=0;bottom=0;right=0;overflow=hidden;strokeColor=inherit;fontSize=16;" vertex="1" parent="OmRxVQi6y_6Q5-akPWUE-19">
          <mxGeometry width="40" height="30" as="geometry">
            <mxRectangle width="40" height="30" as="alternateBounds" />
          </mxGeometry>
        </mxCell>
        <mxCell id="OmRxVQi6y_6Q5-akPWUE-21" value="title" style="shape=partialRectangle;html=1;whiteSpace=wrap;connectable=0;fillColor=none;top=0;left=0;bottom=0;right=0;align=left;spacingLeft=6;overflow=hidden;strokeColor=inherit;fontSize=16;" vertex="1" parent="OmRxVQi6y_6Q5-akPWUE-19">
          <mxGeometry x="40" width="140" height="30" as="geometry">
            <mxRectangle width="140" height="30" as="alternateBounds" />
          </mxGeometry>
        </mxCell>
        <mxCell id="OmRxVQi6y_6Q5-akPWUE-22" value="" style="shape=tableRow;horizontal=0;startSize=0;swimlaneHead=0;swimlaneBody=0;top=0;left=0;bottom=0;right=0;collapsible=0;dropTarget=0;fillColor=none;points=[[0,0.5],[1,0.5]];portConstraint=eastwest;strokeColor=inherit;fontSize=16;" vertex="1" parent="OmRxVQi6y_6Q5-akPWUE-15">
          <mxGeometry y="90" width="180" height="30" as="geometry" />
        </mxCell>
        <mxCell id="OmRxVQi6y_6Q5-akPWUE-23" value="3" style="shape=partialRectangle;html=1;whiteSpace=wrap;connectable=0;fillColor=none;top=0;left=0;bottom=0;right=0;overflow=hidden;strokeColor=inherit;fontSize=16;" vertex="1" parent="OmRxVQi6y_6Q5-akPWUE-22">
          <mxGeometry width="40" height="30" as="geometry">
            <mxRectangle width="40" height="30" as="alternateBounds" />
          </mxGeometry>
        </mxCell>
        <mxCell id="OmRxVQi6y_6Q5-akPWUE-24" value="description" style="shape=partialRectangle;html=1;whiteSpace=wrap;connectable=0;fillColor=none;top=0;left=0;bottom=0;right=0;align=left;spacingLeft=6;overflow=hidden;strokeColor=inherit;fontSize=16;" vertex="1" parent="OmRxVQi6y_6Q5-akPWUE-22">
          <mxGeometry x="40" width="140" height="30" as="geometry">
            <mxRectangle width="140" height="30" as="alternateBounds" />
          </mxGeometry>
        </mxCell>
        <mxCell id="OmRxVQi6y_6Q5-akPWUE-26" value="" style="shape=tableRow;horizontal=0;startSize=0;swimlaneHead=0;swimlaneBody=0;top=0;left=0;bottom=0;right=0;collapsible=0;dropTarget=0;fillColor=none;points=[[0,0.5],[1,0.5]];portConstraint=eastwest;strokeColor=inherit;fontSize=16;" vertex="1" parent="OmRxVQi6y_6Q5-akPWUE-15">
          <mxGeometry y="120" width="180" height="30" as="geometry" />
        </mxCell>
        <mxCell id="OmRxVQi6y_6Q5-akPWUE-27" value="4" style="shape=partialRectangle;html=1;whiteSpace=wrap;connectable=0;fillColor=none;top=0;left=0;bottom=0;right=0;overflow=hidden;strokeColor=inherit;fontSize=16;" vertex="1" parent="OmRxVQi6y_6Q5-akPWUE-26">
          <mxGeometry width="40" height="30" as="geometry">
            <mxRectangle width="40" height="30" as="alternateBounds" />
          </mxGeometry>
        </mxCell>
        <mxCell id="OmRxVQi6y_6Q5-akPWUE-28" value="links" style="shape=partialRectangle;html=1;whiteSpace=wrap;connectable=0;fillColor=none;top=0;left=0;bottom=0;right=0;align=left;spacingLeft=6;overflow=hidden;strokeColor=inherit;fontSize=16;" vertex="1" parent="OmRxVQi6y_6Q5-akPWUE-26">
          <mxGeometry x="40" width="140" height="30" as="geometry">
            <mxRectangle width="140" height="30" as="alternateBounds" />
          </mxGeometry>
        </mxCell>
        <mxCell id="OmRxVQi6y_6Q5-akPWUE-29" value="" style="shape=tableRow;horizontal=0;startSize=0;swimlaneHead=0;swimlaneBody=0;top=0;left=0;bottom=0;right=0;collapsible=0;dropTarget=0;fillColor=none;points=[[0,0.5],[1,0.5]];portConstraint=eastwest;strokeColor=inherit;fontSize=16;" vertex="1" parent="OmRxVQi6y_6Q5-akPWUE-15">
          <mxGeometry y="150" width="180" height="30" as="geometry" />
        </mxCell>
        <mxCell id="OmRxVQi6y_6Q5-akPWUE-30" value="5" style="shape=partialRectangle;html=1;whiteSpace=wrap;connectable=0;fillColor=none;top=0;left=0;bottom=0;right=0;overflow=hidden;strokeColor=inherit;fontSize=16;" vertex="1" parent="OmRxVQi6y_6Q5-akPWUE-29">
          <mxGeometry width="40" height="30" as="geometry">
            <mxRectangle width="40" height="30" as="alternateBounds" />
          </mxGeometry>
        </mxCell>
        <mxCell id="OmRxVQi6y_6Q5-akPWUE-31" value="imageUrl" style="shape=partialRectangle;html=1;whiteSpace=wrap;connectable=0;fillColor=none;top=0;left=0;bottom=0;right=0;align=left;spacingLeft=6;overflow=hidden;strokeColor=inherit;fontSize=16;" vertex="1" parent="OmRxVQi6y_6Q5-akPWUE-29">
          <mxGeometry x="40" width="140" height="30" as="geometry">
            <mxRectangle width="140" height="30" as="alternateBounds" />
          </mxGeometry>
        </mxCell>
        <mxCell id="OmRxVQi6y_6Q5-akPWUE-32" value="" style="shape=tableRow;horizontal=0;startSize=0;swimlaneHead=0;swimlaneBody=0;top=0;left=0;bottom=0;right=0;collapsible=0;dropTarget=0;fillColor=none;points=[[0,0.5],[1,0.5]];portConstraint=eastwest;strokeColor=inherit;fontSize=16;" vertex="1" parent="OmRxVQi6y_6Q5-akPWUE-15">
          <mxGeometry y="180" width="180" height="30" as="geometry" />
        </mxCell>
        <mxCell id="OmRxVQi6y_6Q5-akPWUE-33" value="6" style="shape=partialRectangle;html=1;whiteSpace=wrap;connectable=0;fillColor=none;top=0;left=0;bottom=0;right=0;overflow=hidden;strokeColor=inherit;fontSize=16;" vertex="1" parent="OmRxVQi6y_6Q5-akPWUE-32">
          <mxGeometry width="40" height="30" as="geometry">
            <mxRectangle width="40" height="30" as="alternateBounds" />
          </mxGeometry>
        </mxCell>
        <mxCell id="OmRxVQi6y_6Q5-akPWUE-34" value="parsTime" style="shape=partialRectangle;html=1;whiteSpace=wrap;connectable=0;fillColor=none;top=0;left=0;bottom=0;right=0;align=left;spacingLeft=6;overflow=hidden;strokeColor=inherit;fontSize=16;" vertex="1" parent="OmRxVQi6y_6Q5-akPWUE-32">
          <mxGeometry x="40" width="140" height="30" as="geometry">
            <mxRectangle width="140" height="30" as="alternateBounds" />
          </mxGeometry>
        </mxCell>
        <mxCell id="OmRxVQi6y_6Q5-akPWUE-73" value="postTags" style="shape=table;startSize=30;container=1;collapsible=0;childLayout=tableLayout;fixedRows=1;rowLines=0;fontStyle=0;strokeColor=default;fontSize=16;" vertex="1" parent="1">
          <mxGeometry x="330" y="130" width="180" height="120" as="geometry" />
        </mxCell>
        <mxCell id="OmRxVQi6y_6Q5-akPWUE-74" value="" style="shape=tableRow;horizontal=0;startSize=0;swimlaneHead=0;swimlaneBody=0;top=0;left=0;bottom=0;right=0;collapsible=0;dropTarget=0;fillColor=none;points=[[0,0.5],[1,0.5]];portConstraint=eastwest;strokeColor=inherit;fontSize=16;" vertex="1" parent="OmRxVQi6y_6Q5-akPWUE-73">
          <mxGeometry y="30" width="180" height="30" as="geometry" />
        </mxCell>
        <mxCell id="OmRxVQi6y_6Q5-akPWUE-75" value="1" style="shape=partialRectangle;html=1;whiteSpace=wrap;connectable=0;fillColor=none;top=0;left=0;bottom=0;right=0;overflow=hidden;pointerEvents=1;strokeColor=inherit;fontSize=16;" vertex="1" parent="OmRxVQi6y_6Q5-akPWUE-74">
          <mxGeometry width="40" height="30" as="geometry">
            <mxRectangle width="40" height="30" as="alternateBounds" />
          </mxGeometry>
        </mxCell>
        <mxCell id="OmRxVQi6y_6Q5-akPWUE-76" value="id" style="shape=partialRectangle;html=1;whiteSpace=wrap;connectable=0;fillColor=none;top=0;left=0;bottom=0;right=0;align=left;spacingLeft=6;overflow=hidden;strokeColor=inherit;fontSize=16;" vertex="1" parent="OmRxVQi6y_6Q5-akPWUE-74">
          <mxGeometry x="40" width="140" height="30" as="geometry">
            <mxRectangle width="140" height="30" as="alternateBounds" />
          </mxGeometry>
        </mxCell>
        <mxCell id="OmRxVQi6y_6Q5-akPWUE-77" value="" style="shape=tableRow;horizontal=0;startSize=0;swimlaneHead=0;swimlaneBody=0;top=0;left=0;bottom=0;right=0;collapsible=0;dropTarget=0;fillColor=none;points=[[0,0.5],[1,0.5]];portConstraint=eastwest;strokeColor=inherit;fontSize=16;" vertex="1" parent="OmRxVQi6y_6Q5-akPWUE-73">
          <mxGeometry y="60" width="180" height="30" as="geometry" />
        </mxCell>
        <mxCell id="OmRxVQi6y_6Q5-akPWUE-78" value="2" style="shape=partialRectangle;html=1;whiteSpace=wrap;connectable=0;fillColor=none;top=0;left=0;bottom=0;right=0;overflow=hidden;strokeColor=inherit;fontSize=16;" vertex="1" parent="OmRxVQi6y_6Q5-akPWUE-77">
          <mxGeometry width="40" height="30" as="geometry">
            <mxRectangle width="40" height="30" as="alternateBounds" />
          </mxGeometry>
        </mxCell>
        <mxCell id="OmRxVQi6y_6Q5-akPWUE-79" value="post_id" style="shape=partialRectangle;html=1;whiteSpace=wrap;connectable=0;fillColor=none;top=0;left=0;bottom=0;right=0;align=left;spacingLeft=6;overflow=hidden;strokeColor=inherit;fontSize=16;" vertex="1" parent="OmRxVQi6y_6Q5-akPWUE-77">
          <mxGeometry x="40" width="140" height="30" as="geometry">
            <mxRectangle width="140" height="30" as="alternateBounds" />
          </mxGeometry>
        </mxCell>
        <mxCell id="OmRxVQi6y_6Q5-akPWUE-80" value="" style="shape=tableRow;horizontal=0;startSize=0;swimlaneHead=0;swimlaneBody=0;top=0;left=0;bottom=0;right=0;collapsible=0;dropTarget=0;fillColor=none;points=[[0,0.5],[1,0.5]];portConstraint=eastwest;strokeColor=inherit;fontSize=16;" vertex="1" parent="OmRxVQi6y_6Q5-akPWUE-73">
          <mxGeometry y="90" width="180" height="30" as="geometry" />
        </mxCell>
        <mxCell id="OmRxVQi6y_6Q5-akPWUE-81" value="3" style="shape=partialRectangle;html=1;whiteSpace=wrap;connectable=0;fillColor=none;top=0;left=0;bottom=0;right=0;overflow=hidden;strokeColor=inherit;fontSize=16;" vertex="1" parent="OmRxVQi6y_6Q5-akPWUE-80">
          <mxGeometry width="40" height="30" as="geometry">
            <mxRectangle width="40" height="30" as="alternateBounds" />
          </mxGeometry>
        </mxCell>
        <mxCell id="OmRxVQi6y_6Q5-akPWUE-82" value="tag_id" style="shape=partialRectangle;html=1;whiteSpace=wrap;connectable=0;fillColor=none;top=0;left=0;bottom=0;right=0;align=left;spacingLeft=6;overflow=hidden;strokeColor=inherit;fontSize=16;" vertex="1" parent="OmRxVQi6y_6Q5-akPWUE-80">
          <mxGeometry x="40" width="140" height="30" as="geometry">
            <mxRectangle width="140" height="30" as="alternateBounds" />
          </mxGeometry>
        </mxCell>
        <mxCell id="OmRxVQi6y_6Q5-akPWUE-83" value="Tags" style="shape=table;startSize=30;container=1;collapsible=0;childLayout=tableLayout;fixedRows=1;rowLines=0;fontStyle=0;strokeColor=default;fontSize=16;" vertex="1" parent="1">
          <mxGeometry x="600" y="130" width="180" height="90" as="geometry" />
        </mxCell>
        <mxCell id="OmRxVQi6y_6Q5-akPWUE-84" value="" style="shape=tableRow;horizontal=0;startSize=0;swimlaneHead=0;swimlaneBody=0;top=0;left=0;bottom=0;right=0;collapsible=0;dropTarget=0;fillColor=none;points=[[0,0.5],[1,0.5]];portConstraint=eastwest;strokeColor=inherit;fontSize=16;" vertex="1" parent="OmRxVQi6y_6Q5-akPWUE-83">
          <mxGeometry y="30" width="180" height="30" as="geometry" />
        </mxCell>
        <mxCell id="OmRxVQi6y_6Q5-akPWUE-85" value="1" style="shape=partialRectangle;html=1;whiteSpace=wrap;connectable=0;fillColor=none;top=0;left=0;bottom=0;right=0;overflow=hidden;pointerEvents=1;strokeColor=inherit;fontSize=16;" vertex="1" parent="OmRxVQi6y_6Q5-akPWUE-84">
          <mxGeometry width="40" height="30" as="geometry">
            <mxRectangle width="40" height="30" as="alternateBounds" />
          </mxGeometry>
        </mxCell>
        <mxCell id="OmRxVQi6y_6Q5-akPWUE-86" value="id" style="shape=partialRectangle;html=1;whiteSpace=wrap;connectable=0;fillColor=none;top=0;left=0;bottom=0;right=0;align=left;spacingLeft=6;overflow=hidden;strokeColor=inherit;fontSize=16;" vertex="1" parent="OmRxVQi6y_6Q5-akPWUE-84">
          <mxGeometry x="40" width="140" height="30" as="geometry">
            <mxRectangle width="140" height="30" as="alternateBounds" />
          </mxGeometry>
        </mxCell>
        <mxCell id="OmRxVQi6y_6Q5-akPWUE-87" value="" style="shape=tableRow;horizontal=0;startSize=0;swimlaneHead=0;swimlaneBody=0;top=0;left=0;bottom=0;right=0;collapsible=0;dropTarget=0;fillColor=none;points=[[0,0.5],[1,0.5]];portConstraint=eastwest;strokeColor=inherit;fontSize=16;" vertex="1" parent="OmRxVQi6y_6Q5-akPWUE-83">
          <mxGeometry y="60" width="180" height="30" as="geometry" />
        </mxCell>
        <mxCell id="OmRxVQi6y_6Q5-akPWUE-88" value="2" style="shape=partialRectangle;html=1;whiteSpace=wrap;connectable=0;fillColor=none;top=0;left=0;bottom=0;right=0;overflow=hidden;strokeColor=inherit;fontSize=16;" vertex="1" parent="OmRxVQi6y_6Q5-akPWUE-87">
          <mxGeometry width="40" height="30" as="geometry">
            <mxRectangle width="40" height="30" as="alternateBounds" />
          </mxGeometry>
        </mxCell>
        <mxCell id="OmRxVQi6y_6Q5-akPWUE-89" value="tagText" style="shape=partialRectangle;html=1;whiteSpace=wrap;connectable=0;fillColor=none;top=0;left=0;bottom=0;right=0;align=left;spacingLeft=6;overflow=hidden;strokeColor=inherit;fontSize=16;" vertex="1" parent="OmRxVQi6y_6Q5-akPWUE-87">
          <mxGeometry x="40" width="140" height="30" as="geometry">
            <mxRectangle width="140" height="30" as="alternateBounds" />
          </mxGeometry>
        </mxCell>
        <mxCell id="OmRxVQi6y_6Q5-akPWUE-94" style="edgeStyle=orthogonalEdgeStyle;rounded=0;orthogonalLoop=1;jettySize=auto;html=1;entryX=0;entryY=0.5;entryDx=0;entryDy=0;" edge="1" parent="1" source="OmRxVQi6y_6Q5-akPWUE-16" target="OmRxVQi6y_6Q5-akPWUE-77">
          <mxGeometry relative="1" as="geometry">
            <mxPoint x="70" y="470" as="targetPoint" />
          </mxGeometry>
        </mxCell>
        <mxCell id="OmRxVQi6y_6Q5-akPWUE-95" style="edgeStyle=orthogonalEdgeStyle;rounded=0;orthogonalLoop=1;jettySize=auto;html=1;entryX=1;entryY=0.5;entryDx=0;entryDy=0;" edge="1" parent="1" source="OmRxVQi6y_6Q5-akPWUE-84" target="OmRxVQi6y_6Q5-akPWUE-80">
          <mxGeometry relative="1" as="geometry" />
        </mxCell>
      </root>
    </mxGraphModel>
  </diagram>
  <diagram id="MIhkWiqL1ibdJKJNrfIB" name="API">
    <mxGraphModel dx="838" dy="622" grid="1" gridSize="10" guides="1" tooltips="1" connect="1" arrows="1" fold="1" page="1" pageScale="1" pageWidth="827" pageHeight="1169" math="0" shadow="0">
      <root>
        <mxCell id="0" />
        <mxCell id="1" parent="0" />
      </root>
    </mxGraphModel>
  </diagram>
</mxfile>
